0
SECTION
2
HEADER
9
$INSUNITS
70
4
9
$ACADVER
1
AC1014
9
$HANDSEED
5
FFFF
0
ENDSEC
0
SECTION
2
TABLES
0
TABLE
2
VPORT
5
8
100
AcDbSymbolTable
0
ENDTAB
0
TABLE
2
LTYPE
5
5
100
AcDbSymbolTable
0
LTYPE
5
14
100
AcDbSymbolTableRecord
100
AcDbLinetypeTableRecord
2
BYBLOCK
70
0
0
LTYPE
5
15
100
AcDbSymbolTableRecord
100
AcDbLinetypeTableRecord
2
BYLAYER
70
0
0
ENDTAB
0
TABLE
2
LAYER
5
2
100
AcDbSymbolTable
70
2
0
LAYER
5
50
100
AcDbSymbolTableRecord
100
AcDbLayerTableRecord
2
0
70
0
6
CONTINUOUS
0
ENDTAB
0
TABLE
2
STYLE
5
3
100
AcDbSymbolTable
70
1
0
STYLE
5
11
100
AcDbSymbolTableRecord
100
AcDbTextStyleTableRecord
2
STANDARD
70
0
0
ENDTAB
0
TABLE
2
VIEW
5
6
100
AcDbSymbolTable
70
0
0
ENDTAB
0
TABLE
2
UCS
5
7
100
AcDbSymbolTable
70
0
0
ENDTAB
0
TABLE
2
APPID
5
9
100
AcDbSymbolTable
70
2
0
APPID
5
12
100
AcDbSymbolTableRecord
100
AcDbRegAppTableRecord
2
ACAD
70
0
0
ENDTAB
0
TABLE
2
DIMSTYLE
5
A
100
AcDbSymbolTable
70
1
0
ENDTAB
0
TABLE
2
BLOCK_RECORD
5
1
100
AcDbSymbolTable
70
1
0
BLOCK_RECORD
5
1F
100
AcDbSymbolTableRecord
100
AcDbBlockTableRecord
2
*MODEL_SPACE
0
BLOCK_RECORD
5
1B
100
AcDbSymbolTableRecord
100
AcDbBlockTableRecord
2
*PAPER_SPACE
0
ENDTAB
0
ENDSEC
0
SECTION
2
BLOCKS
0
BLOCK
5
20
100
AcDbEntity
100
AcDbBlockBegin
2
*MODEL_SPACE
0
ENDBLK
5
21
100
AcDbEntity
100
AcDbBlockEnd
0
BLOCK
5
1C
100
AcDbEntity
100
AcDbBlockBegin
2
*PAPER_SPACE
0
ENDBLK
5
1D
100
AcDbEntity
100
AcDbBlockEnd
0
ENDSEC
0
SECTION
2
ENTITIES
0
LWPOLYLINE
5
100
100
AcDbEntity
8
0
100
AcDbPolyline
90
4
70
1
43
0.0
10
40.917189004089145
20
93.965021604041993
10
38.486189004089148
20
80.176721604042001
10
52.273489004089143
20
77.745721604041989
10
54.704489004089147
20
91.532921604041988
0
LWPOLYLINE
5
101
100
AcDbEntity
8
0
100
AcDbPolyline
90
4
70
1
43
0.0
10
115.41200000000002
20
13.840361958647197
10
125.31200000000001
20
3.9391619586471993
10
135.21200000000002
20
13.840361958647197
10
125.31200000000001
20
23.738861958647202
0
LWPOLYLINE
5
102
100
AcDbEntity
8
0
100
AcDbPolyline
90
4
70
1
43
0.0
10
94.906800000000004
20
27.5876619586472
10
107.03100000000001
20
20.587261958647201
10
114.03
20
32.712461958647204
10
101.90600000000002
20
39.712961958647199
0
LWPOLYLINE
5
103
100
AcDbEntity
8
0
100
AcDbPolyline
90
4
70
1
43
0.0
10
67.145151377370695
20
117.88313716351142
10
84.531561953904543
20
113.22344540716188
10
80.130741961796645
20
96.802946529324345
10
62.744331385262797
20
101.4626382856739
0
LWPOLYLINE
5
104
100
AcDbEntity
8
0
100
AcDbPolyline
90
4
70
1
43
0.0
10
121.11525137737064
20
98.491137163511411
10
116.71443138526277
20
82.070638285673908
10
134.10084196179662
20
77.410946529324349
10
138.50166195390449
20
93.83144540716188
0
LWPOLYLINE
5
105
100
AcDbEntity
8
0
100
AcDbPolyline
90
4
70
1
43
0.0
10
36.648401676525765
20
98.830352167701847
10
39.080701676525756
20
112.61935216770186
10
25.293401676525761
20
115.04935216770185
10
22.86250167652577
20
101.26135216770183
0
LWPOLYLINE
5
106
100
AcDbEntity
8
0
100
AcDbPolyline
90
4
70
1
43
0.0
10
33.513081885247345
20
81.055843322815065
10
35.94388188524735
20
94.843043322815035
10
22.156681885247359
20
97.274043322815061
10
19.725781885247361
20
83.486543322815052
0
LWPOLYLINE
5
107
100
AcDbEntity
8
0
100
AcDbPolyline
90
4
70
1
43
0.0
10
82.377431385262781
20
101.13163828567389
10
99.763841961796629
20
96.471946529324342
10
104.16466195390453
20
112.89244540716186
10
86.77825137737068
20
117.55213716351142
0
LWPOLYLINE
5
108
100
AcDbEntity
8
0
100
AcDbPolyline
90
4
70
1
43
0.0
10
44.053908795367569
20
111.7393304489288
10
41.622908795367564
20
97.952330448928819
10
55.408808795367577
20
95.521330448928836
10
57.841208795367578
20
109.30933044892882
0
LWPOLYLINE
5
109
100
AcDbEntity
8
0
100
AcDbPolyline
90
4
70
1
43
0.0
10
121.33266195390451
20
103.36244540716187
10
116.93184196179664
20
86.941946529324369
10
99.545431385262773
20
91.601638285673914
10
103.94625137737067
20
108.02213716351142
0
LWPOLYLINE
5
110
100
AcDbEntity
8
0
100
AcDbPolyline
90
4
70
1
43
0.0
10
19.022462093968954
20
79.498634477928235
10
16.591562093968957
20
65.711334477928261
10
30.377462093968944
20
63.280334477928257
10
32.809762093968942
20
77.067634477928252
0
LWPOLYLINE
5
111
100
AcDbEntity
8
0
100
AcDbPolyline
90
4
70
1
43
0.0
10
37.782969212810748
20
76.188412759155185
10
35.352169212810757
20
62.401112759155183
10
49.138169212810745
20
59.970112759155185
10
51.568869212810725
20
73.757412759155187
0
LWPOLYLINE
5
112
100
AcDbEntity
8
0
100
AcDbPolyline
90
4
70
1
43
0.0
10
58.07178476972215
20
84.027908348305246
10
75.458195346256005
20
79.368216591955701
10
79.859015338363903
20
95.788715469793217
10
62.472604761830048
20
100.44840722614276
0
LWPOLYLINE
5
113
100
AcDbEntity
8
0
100
AcDbPolyline
90
4
70
1
43
0.0
10
77.704884769722156
20
83.696908348305229
10
95.091295346256004
20
79.037216591955683
10
99.492115338363902
20
95.457715469793214
10
82.105704761830054
20
100.11740722614276
0
LWPOLYLINE
5
114
100
AcDbEntity
8
0
100
AcDbPolyline
90
4
70
1
43
0.0
10
94.872884769722162
20
74.166908348305242
10
112.25929534625601
20
69.507216591955682
10
116.66011533836391
20
85.927715469793213
10
99.273704761830061
20
90.587407226142759
0
LWPOLYLINE
5
115
100
AcDbEntity
8
0
100
AcDbPolyline
90
4
70
1
43
0.0
10
112.04188476972215
20
64.635908348305236
10
129.42829534625599
20
59.976216591955676
10
133.82911533836389
20
76.396715469793207
10
116.44270476183004
20
81.056407226142753
0
LWPOLYLINE
5
116
100
AcDbEntity
8
0
100
AcDbPolyline
90
4
70
1
43
0.0
10
107.36924942516046
20
47.201202186836554
10
124.75566000169431
20
42.541510430487008
10
129.15647999380221
20
58.962009308324525
10
111.77006941726836
20
63.62170106467407
0
LWPOLYLINE
5
117
100
AcDbEntity
8
0
100
AcDbPolyline
90
4
70
1
43
0.0
10
90.200249425160479
20
56.73220218683656
10
107.58666000169433
20
52.072510430487007
10
111.98747999380222
20
68.493009308324531
10
94.601069417268377
20
73.152701064674076
0
LWPOLYLINE
5
118
100
AcDbEntity
8
0
100
AcDbPolyline
90
4
70
1
43
0.0
10
73.032249425160472
20
66.262202186836547
10
90.418660001694334
20
61.602510430487001
10
94.819479993802233
20
78.023009308324518
10
77.433069417268371
20
82.682701064674092
0
LWPOLYLINE
5
119
100
AcDbEntity
8
0
100
AcDbPolyline
90
4
70
1
43
0.0
10
53.399149425160488
20
66.593202186836564
10
70.785560001694336
20
61.933510430487011
10
75.186379993802234
20
78.354009308324521
10
57.799969417268386
20
83.013701064674095
0
LWPOLYLINE
5
120
100
AcDbEntity
8
0
100
AcDbPolyline
90
4
70
1
43
0.0
10
115.38954661554035
20
88.908991896015522
10
119.01254661554034
20
102.43209189601551
10
105.48954661554033
20
106.05609189601543
10
101.86654661554039
20
92.533091896015435
0
LWPOLYLINE
5
121
100
AcDbEntity
8
0
100
AcDbPolyline
90
4
70
1
43
0.0
10
132.55654661554044
20
79.376991896015582
10
136.18154661554033
20
92.901091896015586
10
122.65854661554033
20
96.525091896015567
10
119.03454661554038
20
83.00099189601552
0
LWPOLYLINE
5
122
100
AcDbEntity
8
0
100
AcDbPolyline
90
4
70
1
43
0.0
10
98.221546615540348
20
98.439091896015398
10
101.84454661554028
20
111.96209189601539
10
88.320546615540266
20
115.58509189601536
10
84.697446615540329
20
102.06209189601536
0
LWPOLYLINE
5
123
100
AcDbEntity
8
0
100
AcDbPolyline
90
4
70
1
43
0.0
10
68.687746615540306
20
115.91709189601525
10
65.064746615540344
20
102.39309189601525
10
78.587346615540369
20
98.770091896015302
10
82.211446615540282
20
112.29309189601534
0
LWPOLYLINE
5
124
100
AcDbEntity
8
0
100
AcDbPolyline
90
4
70
1
43
0.0
10
64.015399999999715
20
98.482261958646575
10
60.392399999999817
20
84.958161958646556
10
73.915099999999796
20
81.335461958646619
10
77.538099999999801
20
94.858261958646636
0
LWPOLYLINE
5
125
100
AcDbEntity
8
0
100
AcDbPolyline
90
4
70
1
43
0.0
10
93.548199999999824
20
81.004561958646718
10
97.172299999999794
20
94.527261958646704
10
83.649599999999793
20
98.150261958646681
10
80.025499999999823
20
84.628661958646646
0
LWPOLYLINE
5
126
100
AcDbEntity
8
0
100
AcDbPolyline
90
4
70
1
43
0.0
10
110.7169999999999
20
71.473961958646811
10
114.33999999999983
20
84.996661958646797
10
100.81699999999981
20
88.621061958646763
10
97.193099999999859
20
75.098361958646734
0
LWPOLYLINE
5
127
100
AcDbEntity
8
0
100
AcDbPolyline
90
4
70
1
43
0.0
10
127.88599999999995
20
61.943661958646885
10
131.50899999999987
20
75.4663619586469
10
117.98499999999984
20
79.088961958646834
10
114.36199999999991
20
65.566361958646823
0
LWPOLYLINE
5
128
100
AcDbEntity
8
0
100
AcDbPolyline
90
4
70
1
43
0.0
10
123.21236465543831
20
44.508955797178174
10
126.83636465543827
20
58.031655797178203
10
113.31436465543823
20
61.654255797178131
10
109.68936465543831
20
48.131655797178105
0
LWPOLYLINE
5
129
100
AcDbEntity
8
0
100
AcDbPolyline
90
4
70
1
43
0.0
10
96.145164655438222
20
71.186355797178052
10
92.522064655438328
20
57.663655797178023
10
106.0443646554383
20
54.0392557971781
10
109.66736465543825
20
67.561955797178129
0
LWPOLYLINE
5
130
100
AcDbEntity
8
0
100
AcDbPolyline
90
4
70
1
43
0.0
10
78.977564655438229
20
80.71665579717795
10
75.35306465543826
20
67.193955797177935
10
88.87716465543825
20
63.569855797178015
10
92.500264655438187
20
77.092555797178008
0
LWPOLYLINE
5
131
100
AcDbEntity
8
0
100
AcDbPolyline
90
4
70
1
43
0.0
10
59.344364655438184
20
81.047555797177836
10
55.720364655438253
20
67.523455797177832
10
69.242964655438271
20
63.900455797177912
10
72.865664655438152
20
77.423155797177913
0
LWPOLYLINE
5
132
100
AcDbEntity
8
0
100
AcDbPolyline
90
4
70
1
43
0.0
10
56.935101905189498
20
92.662022478166435
10
53.982169137780467
20
75.920451820932357
10
36.255800206591417
20
79.047086515836028
10
39.208732974000441
20
95.788657173070135
0
LWPOLYLINE
5
133
100
AcDbEntity
8
0
100
AcDbPolyline
90
4
70
1
43
0.0
10
39.391119997869843
20
96.822695360722861
10
57.117488929058908
20
93.696060665819203
10
60.070421696467939
20
110.4376313230533
10
42.344052765278867
20
113.56426601795701
0
LWPOLYLINE
5
134
100
AcDbEntity
8
0
100
AcDbPolyline
90
4
70
1
43
0.0
10
33.120480415313011
20
61.271477670949238
10
50.846849346502054
20
58.144842976045553
10
53.799782113911085
20
74.886413633279631
10
36.073413182722035
20
78.013048328183345
0
LWPOLYLINE
5
135
100
AcDbEntity
8
0
100
AcDbPolyline
90
4
70
1
43
0.0
10
38.174694786347693
20
95.971044196939488
10
35.221762018938669
20
79.229473539705396
10
17.495393087749626
20
82.356108234609096
10
20.44832585515865
20
99.097678891843159
0
LWPOLYLINE
5
136
100
AcDbEntity
8
0
100
AcDbPolyline
90
4
70
1
43
0.0
10
14.360073296471223
20
64.580499389722291
10
32.086442227660264
20
61.45386469481862
10
35.039374995069295
20
78.195435352052684
10
17.313006063880245
20
81.322070046956412
0
LWPOLYLINE
5
137
100
AcDbEntity
8
0
100
AcDbPolyline
90
4
70
1
43
0.0
10
41.31001457762612
20
113.74665304182631
10
38.357081810217089
20
97.005082384592242
10
20.630712879028039
20
100.13171707949593
10
23.583645646437056
20
116.87328773673002
0
LWPOLYLINE
5
138
100
AcDbEntity
8
0
100
AcDbPolyline
90
4
70
1
43
0.0
10
92.424530469953055
20
27.288272232501448
10
108.01249650144203
20
18.287421439318287
10
116.51330002833723
20
33.009389357946766
10
100.92533399684825
20
42.010240151129921
0
LWPOLYLINE
5
139
100
AcDbEntity
8
0
100
AcDbPolyline
90
4
70
1
43
0.0
10
109.93221509293279
20
11.187233546735422
10
122.65944245466281
20
-1.5413831763351515
10
140.69164947901274
20
16.488855586115662
10
127.96442211728277
20
29.217472309186224
0
LWPOLYLINE
5
140
100
AcDbEntity
8
0
100
AcDbPolyline
90
4
70
1
43
0.0
10
281.7845945930319
20
91.601638285674369
10
264.39818401649808
20
86.941946529324738
10
259.99736402439009
20
103.36244540716223
10
277.38377460092397
20
108.02213716351187
0
LWPOLYLINE
5
141
100
AcDbEntity
8
0
100
AcDbPolyline
90
4
70
1
43
0.0
10
271.39781088536222
20
11.187233546735825
10
258.67058352363233
20
-1.5413831763348096
10
240.63837649928232
20
16.488855586115907
10
253.36560386101223
20
29.21747230918654
0
LWPOLYLINE
5
142
100
AcDbEntity
8
0
100
AcDbPolyline
90
4
70
1
43
0.0
10
288.90549550834191
20
27.288272232501939
10
273.317529476853
20
18.287421439318699
10
264.81672594995769
20
33.009389357947128
10
280.40469198144666
20
42.010240151130361
0
LWPOLYLINE
5
143
100
AcDbEntity
8
0
100
AcDbPolyline
90
4
70
1
43
0.0
10
256.0180259782951
20
3.9391619586475279
10
246.11802597829501
20
13.84036195864747
10
256.01802597829499
20
23.738861958647526
10
265.91802597829508
20
13.840361958647573
0
LWPOLYLINE
5
144
100
AcDbEntity
8
0
100
AcDbPolyline
90
4
70
1
43
0.0
10
266.99002597829485
20
84.996661958647195
10
280.51302597829488
20
88.621061958647203
10
284.13692597829487
20
75.098361958647203
10
270.6130259782949
20
71.473961958647209
0
LWPOLYLINE
5
145
100
AcDbEntity
8
0
100
AcDbPolyline
90
4
70
1
43
0.0
10
288.8079613228565
20
57.663655797178507
10
275.28566132285653
20
54.039255797178512
10
271.66266132285654
20
67.561955797178527
10
285.18486132285653
20
71.186355797178521
0
LWPOLYLINE
5
146
100
AcDbEntity
8
0
100
AcDbPolyline
90
4
70
1
43
0.0
10
286.72895656102639
20
73.152701064674545
10
269.34254598449257
20
68.493009308324929
10
273.74336597660056
20
52.072510430487426
10
291.12977655313438
20
56.732202186837064
0
LWPOLYLINE
5
147
100
AcDbEntity
8
0
100
AcDbPolyline
90
4
70
1
43
0.0
10
258.11766132285663
20
44.508955797178515
10
254.49366132285655
20
58.031655797178523
10
268.01566132285654
20
61.654255797178514
10
271.6406613228566
20
48.131655797178503
0
LWPOLYLINE
5
148
100
AcDbEntity
8
0
100
AcDbPolyline
90
4
70
1
43
0.0
10
282.0563212164646
20
90.587407226143199
10
264.66991063993078
20
85.927715469793583
10
269.07073063203876
20
69.50721659195608
10
286.45714120857258
20
74.166908348305725
0
LWPOLYLINE
5
149
100
AcDbEntity
8
0
100
AcDbPolyline
90
4
70
1
43
0.0
10
321.98566132285646
20
81.047555797178489
10
325.6096613228566
20
67.523455797178514
10
312.08706132285658
20
63.900455797178509
10
308.46436132285658
20
77.423155797178495
0
LWPOLYLINE
5
150
100
AcDbEntity
8
0
100
AcDbPolyline
90
4
70
1
43
0.0
10
269.55995656102641
20
63.621701064674461
10
273.96077655313439
20
47.201202186836973
10
256.57436597660057
20
42.541510430487335
10
252.17354598449262
20
58.962009308324838
0
LWPOLYLINE
5
151
100
AcDbEntity
8
0
100
AcDbPolyline
90
4
70
1
43
0.0
10
329.76115676548403
20
73.757412759155883
10
343.547056765484
20
76.188412759155952
10
345.97785676548403
20
62.401112759155957
10
332.19185676548409
20
59.970112759155896
0
LWPOLYLINE
5
152
100
AcDbEntity
8
0
100
AcDbPolyline
90
4
70
1
43
0.0
10
302.35246132285653
20
80.716655797178518
10
305.97696132285654
20
67.193955797178518
10
292.45286132285656
20
63.569855797178519
10
288.82976132285654
20
77.092555797178491
0
LWPOLYLINE
5
153
100
AcDbEntity
8
0
100
AcDbPolyline
90
4
70
1
43
0.0
10
364.0170199144145
20
81.322070046957279
10
366.96995268182366
20
64.580499389723172
10
349.24358375063457
20
61.453864694819408
10
346.29065098322542
20
78.195435352053465
0
LWPOLYLINE
5
154
100
AcDbEntity
8
0
100
AcDbPolyline
90
4
70
1
43
0.0
10
286.51054598449252
20
78.023009308325001
10
290.91136597660045
20
61.602510430487499
10
308.29777655313433
20
66.262202186837143
10
303.89695656102629
20
82.68270106467466
0
LWPOLYLINE
5
155
100
AcDbEntity
8
0
100
AcDbPolyline
90
4
70
1
43
0.0
10
267.30002597829497
20
32.712461958647587
10
279.42402597829494
20
39.712961958647639
10
286.42322597829497
20
27.587661958647679
10
274.29902597829505
20
20.587261958647616
0
LWPOLYLINE
5
156
100
AcDbEntity
8
0
100
AcDbPolyline
90
4
70
1
43
0.0
10
306.14364598449248
20
78.354009308325104
10
310.54446597660046
20
61.933510430487608
10
327.93087655313428
20
66.593202186837246
10
323.5300565610263
20
83.013701064674748
0
LWPOLYLINE
5
157
100
AcDbEntity
8
0
100
AcDbPolyline
90
4
70
1
43
0.0
10
350.95256388432585
20
63.280334477929053
10
348.5202638843258
20
77.067634477929033
10
362.30756388432582
20
79.498634477929087
10
364.73846388432582
20
65.711334477929128
0
LWPOLYLINE
5
158
100
AcDbEntity
8
0
100
AcDbPolyline
90
4
70
1
43
0.0
10
249.82102597829487
20
75.466361958647198
10
263.34502597829487
20
79.088961958647204
10
266.96802597829492
20
65.566361958647207
10
253.44402597829486
20
61.943661958647198
0
LWPOLYLINE
5
159
100
AcDbEntity
8
0
100
AcDbPolyline
90
4
70
1
43
0.0
10
318.85742121646456
20
100.4484072261434
10
301.47101063993074
20
95.788715469793772
10
305.87183063203872
20
79.368216591956269
10
323.25824120857254
20
84.0279083483059
0
LWPOLYLINE
5
160
100
AcDbEntity
8
0
100
AcDbPolyline
90
4
70
1
43
0.0
10
245.14847936275433
20
92.90109189601587
10
258.67147936275433
20
96.525091896015894
10
262.29547936275429
20
83.000991896015876
10
248.77347936275427
20
79.37699189601588
0
LWPOLYLINE
5
161
100
AcDbEntity
8
0
100
AcDbPolyline
90
4
70
1
43
0.0
10
345.25661279557266
20
78.013048328184112
10
327.53024386438369
20
74.886413633280313
10
330.48317663179273
20
58.144842976046256
10
348.20954556298176
20
61.27147767095002
0
LWPOLYLINE
5
162
100
AcDbEntity
8
0
100
AcDbPolyline
90
4
70
1
43
0.0
10
317.31462597829488
20
98.482261958647229
10
320.93762597829488
20
84.958161958647196
10
307.41492597829495
20
81.335461958647215
10
303.7919259782949
20
94.858261958647205
0
LWPOLYLINE
5
163
100
AcDbEntity
8
0
100
AcDbPolyline
90
4
70
1
43
0.0
10
264.88732121646467
20
81.056407226143122
10
247.50091063993082
20
76.396715469793492
10
251.90173063203883
20
59.976216591955982
10
269.28814120857271
20
64.63590834830562
0
LWPOLYLINE
5
164
100
AcDbEntity
8
0
100
AcDbPolyline
90
4
70
1
43
0.0
10
316.26527936275426
20
102.39309189601587
10
302.74267936275425
20
98.77009189601587
10
299.1185793627543
20
112.29309189601587
10
312.64227936275427
20
115.91709189601588
0
LWPOLYLINE
5
165
100
AcDbEntity
8
0
100
AcDbPolyline
90
4
70
1
43
0.0
10
260.21477460092399
20
98.491137163511766
10
264.61559459303197
20
82.070638285674278
10
247.22918401649815
20
77.410946529324633
10
242.82836402439017
20
93.831445407162136
0
LWPOLYLINE
5
166
100
AcDbEntity
8
0
100
AcDbPolyline
90
4
70
1
43
0.0
10
314.18487460092382
20
117.88313716351205
10
318.5856945930318
20
101.46263828567454
10
301.19928401649804
20
96.802946529324899
10
296.79846402439006
20
113.22344540716242
0
LWPOLYLINE
5
167
100
AcDbEntity
8
0
100
AcDbPolyline
90
4
70
1
43
0.0
10
361.60424409304738
20
83.486543322815905
10
347.81694409304737
20
81.055843322815832
10
345.38614409304728
20
94.843043322815817
10
359.17334409304726
20
97.274043322815913
0
LWPOLYLINE
5
168
100
AcDbEntity
8
0
100
AcDbPolyline
90
4
70
1
43
0.0
10
265.94047936275433
20
88.908991896015891
10
262.31747936275428
20
102.43209189601586
10
275.84047936275425
20
106.05609189601586
10
279.4634793627543
20
92.533091896015875
0
LWPOLYLINE
5
169
100
AcDbEntity
8
0
100
AcDbPolyline
90
4
70
1
43
0.0
10
299.2243212164646
20
100.11740722614331
10
303.62514120857259
20
83.696908348305797
10
286.23873063203871
20
79.037216591956167
10
281.83791063993073
20
95.457715469793669
0
LWPOLYLINE
5
170
100
AcDbEntity
8
0
100
AcDbPolyline
90
4
70
1
43
0.0
10
296.63257936275431
20
102.06209189601589
10
283.10847936275428
20
98.439091896015867
10
279.48547936275429
20
111.96209189601583
10
293.00947936275429
20
115.58509189601587
0
LWPOLYLINE
5
171
100
AcDbEntity
8
0
100
AcDbPolyline
90
4
70
1
43
0.0
10
284.15772597829488
20
94.527261958647159
10
297.68042597829486
20
98.150261958647206
10
301.30452597829492
20
84.6286619586472
10
287.78182597829488
20
81.004561958647201
0
LWPOLYLINE
5
172
100
AcDbEntity
8
0
100
AcDbPolyline
90
4
70
1
43
0.0
10
323.48881718292705
20
109.3093304489295
10
337.27611718292701
20
111.73933044892954
10
339.70711718292705
20
97.952330448929558
10
325.92121718292702
20
95.521330448929518
0
LWPOLYLINE
5
173
100
AcDbEntity
8
0
100
AcDbPolyline
90
4
70
1
43
0.0
10
321.25960428182668
20
110.43763132305394
10
324.21253704923572
20
93.696060665819871
10
341.93890598042481
20
96.822695360723614
10
338.98597321301565
20
113.56426601795775
0
LWPOLYLINE
5
174
100
AcDbEntity
8
0
100
AcDbPolyline
90
4
70
1
43
0.0
10
324.39492407310519
20
92.662022478167103
10
327.34785684051428
20
75.920451820933039
10
345.07422577170331
20
79.04708651583681
10
342.12129300429416
20
95.788657173070888
0
LWPOLYLINE
5
175
100
AcDbEntity
8
0
100
AcDbPolyline
90
4
70
1
43
0.0
10
326.62553697420549
20
91.532921604042656
10
340.41283697420556
20
93.965021604042747
10
342.8438369742056
20
80.176721604042754
10
329.05653697420564
20
77.745721604042672
0
LWPOLYLINE
5
176
100
AcDbEntity
8
0
100
AcDbPolyline
90
4
70
1
43
0.0
10
360.69931309926659
20
100.13171707949678
10
342.97294416807756
20
97.00508238459301
10
340.02001140066847
20
113.74665304182706
10
357.74638033185749
20
116.87328773673086
0
LWPOLYLINE
5
177
100
AcDbEntity
8
0
100
AcDbPolyline
90
4
70
1
43
0.0
10
342.24932430176875
20
112.61935216770262
10
356.03662430176877
20
115.04935216770266
10
358.46752430176883
20
101.26135216770267
10
344.68162430176892
20
98.830352167702642
0
LWPOLYLINE
5
178
100
AcDbEntity
8
0
100
AcDbPolyline
90
4
70
1
43
0.0
10
343.15533119194697
20
95.971044196940255
10
346.10826395935601
20
79.229473539706163
10
363.83463289054509
20
82.356108234609962
10
360.88170012313594
20
99.097678891844012
0
LWPOLYLINE
5
179
100
AcDbEntity
8
0
100
AcDbPolyline
90
4
70
1
43
0.0
10
294.55177460092386
20
117.55213716351193
10
298.95259459303185
20
101.13163828567444
10
281.56618401649803
20
96.471946529324811
10
277.16536402439004
20
112.89244540716228
0
LWPOLYLINE
5
180
100
AcDbEntity
8
0
100
AcDbPolyline
90
24
70
1
43
0.0
10
95.343345899579504
20
124.57424785882029
42
0.079724959389022174
10
62.561017416553177
20
127.9542246215845
10
21.794075982438073
20
125.65364104963047
42
0.34807515705306996
10
13.437977911238331
20
118.23125511972997
10
4.3068800355091632
20
66.462748246892545
42
0.41421356237309481
10
11.606747153651849
20
56.036246433846188
10
46.804230233862256
20
49.827999713998167
42
-0.15391472105982967
10
71.342628750288824
20
37.052415703158275
10
116.29513409312753
20
-7.9049968572001648
42
0.41421356237309503
10
129.02305613552781
20
-7.9056915378704629
10
147.05526315987771
20
10.124547224580404
42
-0.41418159093945006
10
234.27476281841732
20
10.12454722458061
10
252.30696984276733
20
-7.9056915378701254
42
0.41421356237309503
10
265.03489188516761
20
-7.9049968571997713
10
309.98739722800559
20
37.052415703158445
42
-0.15391472105981796
10
334.52579574443212
20
49.827999713998807
10
369.72327882464299
20
56.036246433847069
42
0.41421356237309404
10
377.02314594278567
20
66.462748246893455
10
367.89204806705618
20
118.23125511973086
42
0.34807515705307235
10
359.53594999585647
20
125.6536410496313
10
318.76900856174268
20
127.954224621585
42
0.079724959389008601
10
285.98668007871635
20
124.57424785882112
10
215.51670235634532
20
105.68775183265058
42
-0.13168026031551297
10
165.81332362194968
20
105.68775183265032
0
LINE
5
181
100
AcDbEntity
8
0
100
AcDbLine
10
190.71501298914754
20
102.41528792833179
30
0
11
190.71501298914754
21
94.408082275969036
31
0
0
ARC
5
182
100
AcDbEntity
8
0
100
AcDbCircle
10
190.6650129891475
20
81.85818187795789
30
0
40
12.550000000000008
210
0
220
0
230
1
100
AcDbArc
50
-45.228270641784448
51
89.771729358215381
0
LINE
5
183
100
AcDbEntity
8
0
100
AcDbLine
10
194.12965765008818
20
78.322826538898553
30
0
11
199.5037773247376
21
72.948706864249132
31
0
0
ARC
5
184
100
AcDbEntity
8
0
100
AcDbCircle
10
190.6650129891475
20
81.85818187795789
30
0
40
4.9499999999999948
210
0
220
0
230
1
100
AcDbArc
50
-45.57875508966081
51
217.1548146009842
0
LINE
5
185
100
AcDbEntity
8
0
100
AcDbLine
10
186.71983092459817
20
78.868526634027901
30
0
11
190.71501298914751
21
73.596440276354741
31
0
0
LINE
5
186
100
AcDbEntity
8
0
100
AcDbLine
10
190.71501298914745
20
57.039347246815069
30
0
11
190.71501298914751
21
73.596440276354741
31
0
0
LINE
5
187
100
AcDbEntity
8
0
100
AcDbLine
10
190.71501298914745
20
57.039347246815069
30
0
11
194.68989570146556
21
51.794048138443465
31
0
0
ARC
5
188
100
AcDbEntity
8
0
100
AcDbCircle
10
190.66501298914747
20
48.743995818878545
30
0
40
5.0499999999999989
210
0
220
0
230
1
100
AcDbArc
50
-224.43270578546318
51
37.154814600983471
0
LINE
5
189
100
AcDbEntity
8
0
100
AcDbLine
10
187.05894343581667
20
52.279354694090607
30
0
11
181.82624921925864
21
57.51204891064873
31
0
0
ARC
5
190
100
AcDbEntity
8
0
100
AcDbCircle
10
190.66501298914747
20
48.743995818878545
30
0
40
12.450000000000006
210
0
220
0
230
1
100
AcDbArc
50
135.23010415073344
51
270.23010415073327
0
LINE
5
191
100
AcDbEntity
8
0
100
AcDbLine
10
190.71501298914743
20
36.294096220889813
30
0
11
190.7150129891474
21
28.186882522417328
31
0
0
LINE
5
192
100
AcDbEntity
8
0
100
AcDbLine
10
190.46501298914757
20
102.41548324105696
30
0
11
190.46501298914757
21
94.156555754206735
31
0
0
ARC
5
193
100
AcDbEntity
8
0
100
AcDbCircle
10
190.6650129891475
20
81.85818187795789
30
0
40
12.300000000000018
210
0
220
0
230
1
100
AcDbArc
50
-44.068320250737962
51
90.931679749261789
0
LINE
5
194
100
AcDbEntity
8
0
100
AcDbLine
10
194.48066895955958
20
78.325368620020413
30
0
11
199.50269791084787
21
73.303339668732121
31
0
0
ARC
5
195
100
AcDbEntity
8
0
100
AcDbCircle
10
190.6650129891475
20
81.85818187795789
30
0
40
5.1999999999999993
210
0
220
0
230
1
100
AcDbArc
50
-42.795772496028071
51
217.15481460098479
0
LINE
5
196
100
AcDbEntity
8
0
100
AcDbLine
10
186.52057930517651
20
78.717533944940485
30
0
11
190.46501298914751
21
73.512415710521296
31
0
0
LINE
5
197
100
AcDbEntity
8
0
100
AcDbLine
10
190.46501298914748
20
56.955322680981638
30
0
11
190.46501298914751
21
73.512415710521296
31
0
0
LINE
5
198
100
AcDbEntity
8
0
100
AcDbLine
10
190.46501298914748
20
56.955322680981638
30
0
11
194.49064408204381
21
51.64305544935609
31
0
0
ARC
5
199
100
AcDbEntity
8
0
100
AcDbCircle
10
190.66501298914747
20
48.743995818878545
30
0
40
4.7999999999999901
210
0
220
0
230
1
100
AcDbArc
50
-227.3880154632686
51
37.154814600983869
0
LINE
5
200
100
AcDbEntity
8
0
100
AcDbLine
10
187.41526935382214
20
52.276582166678473
30
0
11
181.82729184735081
21
57.864559673149842
31
0
0
ARC
5
201
100
AcDbEntity
8
0
100
AcDbCircle
10
190.66501298914747
20
48.743995818878545
30
0
40
12.699999999999994
210
0
220
0
230
1
100
AcDbArc
50
134.09766696050855
51
269.0976669605086
0
LINE
5
202
100
AcDbEntity
8
0
100
AcDbLine
10
190.46501298914748
20
36.045570719678253
30
0
11
190.46501298914737
21
28.186578517794896
31
0
0
ENDSEC
0
SECTION
2
OBJECTS
0
DICTIONARY
5
C
100
AcDbDictionary
3
ACAD_GROUP
350
D
3
ACAD_MLINESTYLE
350
17
0
DICTIONARY
5
D
100
AcDbDictionary
0
DICTIONARY
5
1A
330
C
100
AcDbDictionary
0
DICTIONARY
5
17
100
AcDbDictionary
0
ENDSEC
0
EOF
