0
SECTION
2
HEADER
9
$INSUNITS
70
4
9
$ACADVER
1
AC1014
9
$HANDSEED
5
FFFF
0
ENDSEC
0
SECTION
2
TABLES
0
TABLE
2
VPORT
5
8
100
AcDbSymbolTable
0
ENDTAB
0
TABLE
2
LTYPE
5
5
100
AcDbSymbolTable
0
LTYPE
5
14
100
AcDbSymbolTableRecord
100
AcDbLinetypeTableRecord
2
BYBLOCK
70
0
0
LTYPE
5
15
100
AcDbSymbolTableRecord
100
AcDbLinetypeTableRecord
2
BYLAYER
70
0
0
ENDTAB
0
TABLE
2
LAYER
5
2
100
AcDbSymbolTable
70
2
0
LAYER
5
50
100
AcDbSymbolTableRecord
100
AcDbLayerTableRecord
2
0
70
0
6
CONTINUOUS
0
ENDTAB
0
TABLE
2
STYLE
5
3
100
AcDbSymbolTable
70
1
0
STYLE
5
11
100
AcDbSymbolTableRecord
100
AcDbTextStyleTableRecord
2
STANDARD
70
0
0
ENDTAB
0
TABLE
2
VIEW
5
6
100
AcDbSymbolTable
70
0
0
ENDTAB
0
TABLE
2
UCS
5
7
100
AcDbSymbolTable
70
0
0
ENDTAB
0
TABLE
2
APPID
5
9
100
AcDbSymbolTable
70
2
0
APPID
5
12
100
AcDbSymbolTableRecord
100
AcDbRegAppTableRecord
2
ACAD
70
0
0
ENDTAB
0
TABLE
2
DIMSTYLE
5
A
100
AcDbSymbolTable
70
1
0
ENDTAB
0
TABLE
2
BLOCK_RECORD
5
1
100
AcDbSymbolTable
70
1
0
BLOCK_RECORD
5
1F
100
AcDbSymbolTableRecord
100
AcDbBlockTableRecord
2
*MODEL_SPACE
0
BLOCK_RECORD
5
1B
100
AcDbSymbolTableRecord
100
AcDbBlockTableRecord
2
*PAPER_SPACE
0
ENDTAB
0
ENDSEC
0
SECTION
2
BLOCKS
0
BLOCK
5
20
100
AcDbEntity
100
AcDbBlockBegin
2
*MODEL_SPACE
0
ENDBLK
5
21
100
AcDbEntity
100
AcDbBlockEnd
0
BLOCK
5
1C
100
AcDbEntity
100
AcDbBlockBegin
2
*PAPER_SPACE
0
ENDBLK
5
1D
100
AcDbEntity
100
AcDbBlockEnd
0
ENDSEC
0
SECTION
2
ENTITIES
0
LWPOLYLINE
5
100
100
AcDbEntity
8
0
100
AcDbPolyline
90
19
70
1
43
0.0
10
231.93009475158868
20
-4.2630029071458307e-14
10
291.93009475158868
20
2.6394453248513991e-15
10
300.93009475158863
20
-8.9999999999999947
10
311.93009475158868
20
-8.9999999999999858
10
316.93009475158868
20
-13.999999999999982
10
316.93009475158868
20
-73.999999999999474
10
311.93009475158868
20
-78.999999999999488
10
263.61546765419007
20
-78.999999999999517
10
252.56386281230945
20
-91.027810838369447
10
240.30214142029692
20
-92.066954974557035
10
234.69623980026449
20
-93.888422826049535
10
212.42456335223835
20
-116.16289762857038
10
205.35349555432504
20
-116.16334182753717
10
191.246555442709
20
-102.05817397854997
10
191.246555442709
20
-55.199782699999602
10
182.56209475158897
20
-46.515322008879551
10
182.56209475158897
20
-9.0000000000000835
10
187.56209475158897
20
-4.0000000000000568
10
227.93009475158868
20
-4.00000000000004
0
LWPOLYLINE
5
101
100
AcDbEntity
8
0
100
AcDbPolyline
90
14
70
1
43
0.0
10
239.26691143315637
20
-77.11374283328837
10
232.19584362129103
20
-70.042675021423008
10
231.13518344951126
20
-71.10333519320281
10
235.24298367206885
20
-75.211135415760438
10
232.98410202977564
20
-74.204164081244215
10
231.17188295241104
20
-76.016383158608832
10
232.17885428692725
20
-78.275264800902065
10
228.0710540643696
20
-74.167464578344436
10
227.0103938925898
20
-75.228124750124238
10
234.08146170445517
20
-82.299192561989599
10
235.14212187623497
20
-81.238532390209798
10
232.96187596757645
20
-76.347710487003013
10
233.31542935816975
20
-75.994157096409722
10
238.20625126137659
20
-78.174403005068172
0
LWPOLYLINE
5
102
100
AcDbEntity
8
0
100
AcDbPolyline
90
12
70
1
43
0.0
10
228.39856151452651
20
-84.394466965112798
10
221.3971330068689
20
-83.521297227738529
10
221.11783738270196
20
-83.242001603571651
10
224.18196676784373
20
-80.177872218429926
10
223.12130659606393
20
-79.117212046650138
10
218.99651703914242
20
-83.242001603571651
10
220.79032993254509
20
-85.035814496974467
10
227.79175844020273
20
-85.908984234348665
10
228.0710540643696
20
-86.188279858515529
10
225.00692467922789
20
-89.25240924365724
10
226.06758485100772
20
-90.313069415437056
10
230.19237440792924
20
-86.188279858515543
0
LWPOLYLINE
5
103
100
AcDbEntity
8
0
100
AcDbPolyline
90
4
70
1
43
0.0
10
232.66724814208206
20
-83.713406124362706
10
225.59618033021678
20
-76.642338312497316
10
224.53552015843698
20
-77.702998484277089
10
231.60658797030231
20
-84.774066296142507
0
LWPOLYLINE
5
104
100
AcDbEntity
8
0
100
AcDbPolyline
90
13
70
1
43
0.0
10
219.25950552285224
20
-91.464294494100329
10
220.05717721092222
20
-90.66662280603029
10
218.28941025795589
20
-88.898855853063992
10
217.7001546069672
20
-89.488111504052711
42
-0.99999999999999989
10
216.28594104459395
20
-88.073897941679661
10
216.87519669558282
20
-87.484642290690871
10
215.81453652380304
20
-86.423982118911113
10
215.22528087281418
20
-87.013237769899888
42
0.78844256743130325
10
217.76621276272095
20
-91.158443676927021
10
217.72232049252065
20
-93.045811295539039
10
220.52858173171316
20
-95.852072534731576
10
221.58924190349299
20
-94.791412362951718
10
219.23683776175653
20
-92.439008221215232
0
LWPOLYLINE
5
105
100
AcDbEntity
8
0
100
AcDbPolyline
90
4
70
1
43
0.0
10
205.44363706640056
20
-96.794881576313514
10
212.51470487826589
20
-103.8659493881789
10
213.5753650500456
20
-102.80528921639913
10
206.50429723818033
20
-95.734221404533741
0
LWPOLYLINE
5
106
100
AcDbEntity
8
0
100
AcDbPolyline
90
8
70
1
43
0.0
10
205.79719044645714
20
-98.562648539816578
10
204.73653027467734
20
-97.501988368036777
10
204.61867915501628
20
-97.619839487697817
42
0.99999999999999989
10
211.68974696688161
20
-104.69090729956326
10
211.80759808654261
20
-104.57305617990215
10
210.74693791476281
20
-103.51239600812235
10
210.62908683198017
20
-103.63024709090497
42
-1.0000000074505806
10
205.67933932679611
20
-98.680499659477647
0
LINE
5
107
100
AcDbEntity
8
0
100
AcDbLine
10
277.0207813966627
20
-17.119701928536976
30
-8.8817841970012523e-15
11
284.54017169937885
21
-22.065282731174165
31
-8.8817841970012523e-15
0
LINE
5
108
100
AcDbEntity
8
0
100
AcDbLine
10
300.04968054271893
20
-34.020236456909586
30
1.7763568394002505e-14
11
295.61487716709627
21
-22.467178679007031
31
-8.8817841970012523e-15
0
LINE
5
109
100
AcDbEntity
8
0
100
AcDbLine
10
284.54017169937885
20
-22.065282731174165
30
-8.8817841970012523e-15
11
286.29835949825667
21
-32.036461230422638
31
1.7763568394002505e-14
0
LINE
5
110
100
AcDbEntity
8
0
100
AcDbLine
10
307.29544648601455
20
-37.79214346299927
30
1.7763568394002505e-14
11
304.16030425353182
21
-34.969248717422886
31
1.7763568394002505e-14
0
CIRCLE
5
111
100
AcDbEntity
8
0
100
AcDbCircle
10
311.93009475158868
20
-14.000000000000083
30
0
40
1.5500000000000029
210
0
220
0
230
1
0
SPLINE
5
112
100
AcDbEntity
8
0
100
AcDbSpline
70
0
71
3
72
10
73
6
74
0
42
0.000000001
43
0.0000000001
44
0.0000000001
40
0
40
0
40
0
40
0
40
0.20416614439525341
40
0.20416614439525341
40
0.41195788203771178
40
0.41195788203771178
40
0.41195788203771178
40
0.41195788203771178
10
285.71076249593989
20
-39.516334384813632
30
1.7763568394002505e-14
10
286.68416469741175
20
-39.208790051260955
30
1.7763568394002505e-14
10
287.68758298080121
20
-38.98131567811604
30
1.7763568394002505e-14
10
289.72532596074518
20
-38.675716681658663
30
1.7763568394002505e-14
10
290.76933126652597
20
-38.598884891143264
30
-6.2172489379008766e-14
10
291.80880384248019
20
-38.598884891143314
30
-6.2172489379008766e-14
0
LINE
5
113
100
AcDbEntity
8
0
100
AcDbLine
10
304.16030425353182
20
-34.969248717422886
30
1.7763568394002505e-14
11
300.04968054271893
21
-34.020236456909586
31
1.7763568394002505e-14
0
LWPOLYLINE
5
114
100
AcDbEntity
8
0
100
AcDbPolyline
90
10
70
1
43
0.0
10
209.45057549312412
20
-92.787943149589921
10
211.45404470648606
20
-97.855541748093401
10
214.98957861241871
20
-101.39107565402604
10
216.05023878419846
20
-100.33041548224628
10
213.99709142314774
20
-98.277268121195533
10
214.64527263923537
20
-97.629086905107911
10
213.58461246745554
20
-96.56842673332811
10
212.84898578674688
20
-97.304053414036801
10
211.88701243505091
20
-94.870826700923459
10
209.62735218842073
20
-92.611166454293311
0
LINE
5
115
100
AcDbEntity
8
0
100
AcDbLine
10
283.771837440318
20
-14.677888914853487
30
-8.8817841970012523e-15
11
277.12438510748569
21
-15.850014114105173
31
-8.8817841970012523e-15
0
LWPOLYLINE
5
116
100
AcDbEntity
8
0
100
AcDbPolyline
90
10
70
1
43
0.0
10
216.00056063650956
20
-96.273798907833708
10
218.05370799756031
20
-98.326946268884456
10
219.11436816934014
20
-97.266286097104626
10
215.57883426340749
20
-93.730752191171987
10
210.51123566490401
20
-91.727282977810063
10
210.33445896960731
20
-91.904059673106744
10
212.5941192162374
20
-94.163719919736835
10
215.02734592935082
20
-95.125693271432851
10
214.2917192486421
20
-95.861319952141542
10
215.3523794204219
20
-96.921980123921372
0
ARC
5
117
100
AcDbEntity
8
0
100
AcDbCircle
10
291.59507394070158
20
-58.059166793608689
30
-8.8817841970012523e-15
40
17.210281902465496
210
4.8423329965139465e-16
220
-1.5482229019843433e-15
230
1
100
AcDbArc
50
90
51
108.22607254618332
0
ARC
5
118
100
AcDbEntity
8
0
100
AcDbCircle
10
277.52871862086226
20
-53.239624224961375
30
1.7763568394002505e-14
40
0.16874999999991813
210
0
220
0
230
1
100
AcDbArc
50
112.36098646533399
51
244.95775918804452
0
LWPOLYLINE
5
119
100
AcDbEntity
8
0
100
AcDbPolyline
90
4
70
1
43
0.0
10
216.52164330498954
20
-85.716875337724503
10
223.5927111168549
20
-92.787943149589864
10
224.6533712886347
20
-91.727282977810077
10
217.58230347676937
20
-84.65621516594473
0
ELLIPSE
5
120
100
AcDbEntity
8
0
100
AcDbEllipse
10
291.78684570904989
20
-49.285244415911407
30
1.7763568394002505e-14
11
12.656232258118226
21
0.021191768863500215
31
0.0
40
0.66666666666666718
41
4.2502256291854028
42
4.7122877139380916
0
LINE
5
121
100
AcDbEntity
8
0
100
AcDbLine
10
292.0043098657394
20
-40.848884891143193
30
1.7763568394002505e-14
11
291.59507394070158
21
-40.848884891143193
31
1.7763568394002505e-14
0
LINE
5
122
100
AcDbEntity
8
0
100
AcDbLine
10
277.12438510748569
20
-15.850014114105173
30
-8.8817841970012523e-15
11
277.0207813966627
21
-17.119701928536976
31
-8.8817841970012523e-15
0
ARC
5
123
100
AcDbEntity
8
0
100
AcDbCircle
10
297.73898414570903
20
-40.643769199940991
30
1.7763568394002505e-14
40
1.124999999999893
210
0
220
0
230
1
100
AcDbArc
50
251.77392745381445
51
289.207626316465
0
LINE
5
124
100
AcDbEntity
8
0
100
AcDbLine
10
307.07650433446003
20
-50.804413706906189
30
1.7763568394002505e-14
11
304.44028967247374
21
-49.86279711365399
31
1.7763568394002505e-14
0
ARC
5
125
100
AcDbEntity
8
0
100
AcDbCircle
10
276.57964219239921
20
-50.963330528139117
30
1.7763568394002505e-14
40
0.16875000000007853
210
0
220
0
230
1
100
AcDbArc
50
109.65597048794496
51
253.68359496317115
0
LINE
5
126
100
AcDbEntity
8
0
100
AcDbLine
10
276.32216119894593
20
-37.792143462999277
30
1.7763568394002505e-14
11
285.71076249593989
21
-39.516334384813632
31
1.7763568394002505e-14
0
ELLIPSE
5
127
100
AcDbEntity
8
0
100
AcDbEllipse
10
291.81253809739144
20
-49.285244415911407
30
1.7763568394002505e-14
11
12.656232258118237
21
-0.021191768863512709
31
0.0
40
0.66666666666666674
41
4.7124902468312664
42
5.1745523315839907
0
LINE
5
128
100
AcDbEntity
8
0
100
AcDbLine
10
277.54428174605164
20
-49.862797113653997
30
1.7763568394002505e-14
11
279.15909413396764
21
-49.862797113653997
31
1.7763568394002505e-14
0
ARC
5
129
100
AcDbEntity
8
0
100
AcDbCircle
10
285.86039966073201
20
-40.643769199940991
30
1.7763568394002505e-14
40
1.1249999999998814
210
0
220
0
230
1
100
AcDbArc
50
250.79237368354961
51
288.22607254618549
0
LINE
5
130
100
AcDbEntity
8
0
100
AcDbLine
10
279.15909413396764
20
-49.862797113653997
30
1.7763568394002505e-14
11
276.52287947198124
21
-50.804413706906189
31
1.7763568394002505e-14
0
CIRCLE
5
131
100
AcDbEntity
8
0
100
AcDbCircle
10
208.88880735379797
20
-112.62758582909711
30
0
40
1.5500000000000029
210
0
220
0
230
1
0
ARC
5
132
100
AcDbEntity
8
0
100
AcDbCircle
10
307.01974161404218
20
-50.963330528139117
30
1.7763568394002505e-14
40
0.16874999999999904
210
-0
220
0
230
1
100
AcDbArc
50
-73.683594963171146
51
70.34402951209141
0
ARC
5
133
100
AcDbEntity
8
0
100
AcDbCircle
10
308.17163981729982
20
-70.589440886630314
30
-8.8817841970012523e-15
40
30.585937500000941
210
3.3176026004327335e-16
220
-8.6258708742210384e-16
230
1
100
AcDbArc
50
91.534795788062198
51
109.2076263164541
0
ARC
5
134
100
AcDbEntity
8
0
100
AcDbCircle
10
275.42774398914173
20
-70.589440886630314
30
-8.8817841970012523e-15
40
30.585937500000835
210
-5.7796830579607623e-16
220
-7.2116155681409844e-16
230
1
100
AcDbArc
50
70.792373683546288
51
88.465204211938882
0
ARC
5
135
100
AcDbEntity
8
0
100
AcDbCircle
10
307.35694475999446
20
-40.183165755108348
30
1.7763568394002505e-14
40
0.16874999999997481
210
-0
220
0
230
1
100
AcDbArc
50
-37.02939470580008
51
91.534795788095323
0
LINE
5
136
100
AcDbEntity
8
0
100
AcDbLine
10
303.74123077500269
20
-52.098884891143101
30
1.7763568394002505e-14
11
307.06715049397172
21
-51.125284103597728
31
1.7763568394002505e-14
0
LINE
5
137
100
AcDbEntity
8
0
100
AcDbLine
10
276.53223331246966
20
-51.125284103597728
30
1.7763568394002505e-14
11
279.85815303143801
21
-52.098884891143101
31
1.7763568394002505e-14
0
LINE
5
138
100
AcDbEntity
8
0
100
AcDbLine
10
279.45730343142856
20
-34.969248717422886
30
1.7763568394002505e-14
11
276.32216119894593
21
-37.792143462999277
31
1.7763568394002505e-14
0
LINE
5
139
100
AcDbEntity
8
0
100
AcDbLine
10
295.61487716709627
20
-22.467178679007031
30
-8.8817841970012523e-15
11
283.771837440318
21
-14.677888914853487
31
-8.8817841970012523e-15
0
LINE
5
140
100
AcDbEntity
8
0
100
AcDbLine
10
286.29835949825667
20
-32.036461230422638
30
1.7763568394002505e-14
11
283.56792714224127
21
-34.020236456909707
31
1.7763568394002505e-14
0
CIRCLE
5
141
100
AcDbEntity
8
0
100
AcDbCircle
10
311.93009475158868
20
-73.999999999999602
30
0
40
1.5500000000000029
210
0
220
0
230
1
0
LINE
5
142
100
AcDbEntity
8
0
100
AcDbLine
10
283.56792714224127
20
-34.020236456909707
30
1.7763568394002505e-14
11
279.45730343142856
21
-34.969248717422886
31
1.7763568394002505e-14
0
SPLINE
5
143
100
AcDbEntity
8
0
100
AcDbSpline
70
0
71
3
72
10
73
6
74
0
42
0.000000001
43
0.0000000001
44
0.0000000001
40
0
40
0
40
0
40
0
40
0.20789451519080696
40
0.20789451519080696
40
0.41216164385048126
40
0.41216164385048126
40
0.41216164385048126
40
0.41216164385048126
10
291.80880384248019
20
-38.598884891143321
30
1.7763568394002505e-14
10
292.84827641843424
20
-38.598884891143321
30
1.7763568394002505e-14
10
293.89228172421508
20
-38.675716681658699
30
1.7763568394002505e-14
10
295.93002470415905
20
-38.981315678116069
30
1.7763568394002505e-14
10
296.93344298754857
20
-39.208790051260955
30
1.7763568394002505e-14
10
297.90684518902037
20
-39.516334384813618
30
1.7763568394002505e-14
0
ARC
5
144
100
AcDbEntity
8
0
100
AcDbCircle
10
276.24243904644675
20
-40.183165755108341
30
1.7763568394002505e-14
40
0.16874999999996002
210
0
220
-0
230
1
100
AcDbArc
50
88.465204211980804
51
217.02939470576527
0
ARC
5
145
100
AcDbEntity
8
0
100
AcDbCircle
10
306.05510206038969
20
-49.69404711365393
30
1.7763568394002505e-14
40
0.1687499999999531
210
-0
220
0
230
1
100
AcDbArc
50
-90
51
47.696691727448091
0
ARC
5
146
100
AcDbEntity
8
0
100
AcDbCircle
10
306.07066518557883
20
-53.239624224961375
30
1.7763568394002505e-14
40
0.16875000000010157
210
-0
220
0
230
1
100
AcDbArc
50
-64.95775918794773
51
67.639013534594625
0
LINE
5
147
100
AcDbEntity
8
0
100
AcDbLine
10
297.90684518902037
20
-39.516334384813618
30
1.7763568394002505e-14
11
307.29544648601455
21
-37.79214346299927
31
1.7763568394002505e-14
0
ARC
5
148
100
AcDbEntity
8
0
100
AcDbCircle
10
292.0043098657394
20
-58.059166793608739
30
-8.8817841970012523e-15
40
17.210281902465464
210
-9.4417252973157376e-16
220
-1.319096007430996e-15
230
1
100
AcDbArc
50
71.773927453816555
51
90
0
ARC
5
149
100
AcDbEntity
8
0
100
AcDbCircle
10
277.54428174605175
20
-49.694047113653937
30
1.7763568394002505e-14
40
0.16875000000005114
210
0
220
0
230
1
100
AcDbArc
50
132.30330827258047
51
269.9999999999614
0
LINE
5
150
100
AcDbEntity
8
0
100
AcDbLine
10
279.18896557044894
20
-47.969160111004292
30
1.7763568394002505e-14
11
277.43070367786714
21
-49.569240924194148
31
1.7763568394002505e-14
0
LINE
5
151
100
AcDbEntity
8
0
100
AcDbLine
10
306.13486456233312
20
-53.08356333131929
30
1.7763568394002505e-14
11
303.74123077500269
21
-52.098884891143101
31
1.7763568394002505e-14
0
LINE
5
152
100
AcDbEntity
8
0
100
AcDbLine
10
304.44028967247374
20
-49.86279711365399
30
1.7763568394002505e-14
11
306.05510206038969
21
-49.862797113653883
31
1.7763568394002505e-14
0
ARC
5
153
100
AcDbEntity
8
0
100
AcDbCircle
10
272.57730103107195
20
18.449093059958486
30
-8.8817841970012523e-15
40
79.295721560537373
210
-2.188994710938149e-16
220
-7.2289474840751351e-17
230
1
100
AcDbArc
50
288.27531641018129
51
295.04224081194377
0
LINE
5
154
100
AcDbEntity
8
0
100
AcDbLine
10
306.16868012857418
20
-49.569240924194141
30
1.7763568394002505e-14
11
304.41041823599232
21
-47.969160111004484
31
1.7763568394002505e-14
0
ARC
5
155
100
AcDbEntity
8
0
100
AcDbCircle
10
260.31600854377518
20
-52.197407467514083
30
1.7763568394002505e-14
40
19.781016727471719
210
0
220
-0
230
1
100
AcDbArc
50
14.846425720219635
51
37.029394705777982
0
ARC
5
156
100
AcDbEntity
8
0
100
AcDbCircle
10
311.02208277536926
20
18.449093059958489
30
-8.8817841970012523e-15
40
79.295721560546724
210
1.4223482515596565e-16
220
3.0443738412296565e-16
230
1
100
AcDbArc
50
244.95775918805634
51
251.72468358981888
0
LINE
5
157
100
AcDbEntity
8
0
100
AcDbLine
10
279.85815303143801
20
-52.098884891143101
30
1.7763568394002505e-14
11
277.4645192441082
21
-53.08356333131929
31
1.7763568394002505e-14
0
ARC
5
158
100
AcDbEntity
8
0
100
AcDbCircle
10
304.97830857691491
20
-47.345129163705543
30
1.7763568394002505e-14
40
0.84374999999995381
210
0
220
0
230
1
100
AcDbArc
50
165.15357427977395
51
227.69669172744204
0
ARC
5
159
100
AcDbEntity
8
0
100
AcDbCircle
10
323.28337526266637
20
-52.197407467514239
30
1.7763568394002505e-14
40
19.781016727472078
210
0
220
0
230
1
100
AcDbArc
50
142.97060529422257
51
165.15357427977978
0
ARC
5
160
100
AcDbEntity
8
0
100
AcDbCircle
10
278.62107522952624
20
-47.345129163705543
30
1.7763568394002505e-14
40
0.84374999999991995
210
-0
220
0
230
1
100
AcDbArc
50
-47.696691727427563
51
14.846425720216105
0
CIRCLE
5
161
100
AcDbEntity
8
0
100
AcDbCircle
10
187.56209475158897
20
-9.0000000000000924
30
0
40
1.5500000000000029
210
0
220
0
230
1
0
ENDSEC
0
SECTION
2
OBJECTS
0
DICTIONARY
5
C
100
AcDbDictionary
3
ACAD_GROUP
350
D
3
ACAD_MLINESTYLE
350
17
0
DICTIONARY
5
D
100
AcDbDictionary
0
DICTIONARY
5
1A
330
C
100
AcDbDictionary
0
DICTIONARY
5
17
100
AcDbDictionary
0
ENDSEC
0
EOF
