0
SECTION
2
HEADER
9
$INSUNITS
70
4
9
$ACADVER
1
AC1014
9
$HANDSEED
5
FFFF
0
ENDSEC
0
SECTION
2
TABLES
0
TABLE
2
VPORT
5
8
100
AcDbSymbolTable
0
ENDTAB
0
TABLE
2
LTYPE
5
5
100
AcDbSymbolTable
0
LTYPE
5
14
100
AcDbSymbolTableRecord
100
AcDbLinetypeTableRecord
2
BYBLOCK
70
0
0
LTYPE
5
15
100
AcDbSymbolTableRecord
100
AcDbLinetypeTableRecord
2
BYLAYER
70
0
0
ENDTAB
0
TABLE
2
LAYER
5
2
100
AcDbSymbolTable
70
2
0
LAYER
5
50
100
AcDbSymbolTableRecord
100
AcDbLayerTableRecord
2
0
70
0
6
CONTINUOUS
0
ENDTAB
0
TABLE
2
STYLE
5
3
100
AcDbSymbolTable
70
1
0
STYLE
5
11
100
AcDbSymbolTableRecord
100
AcDbTextStyleTableRecord
2
STANDARD
70
0
0
ENDTAB
0
TABLE
2
VIEW
5
6
100
AcDbSymbolTable
70
0
0
ENDTAB
0
TABLE
2
UCS
5
7
100
AcDbSymbolTable
70
0
0
ENDTAB
0
TABLE
2
APPID
5
9
100
AcDbSymbolTable
70
2
0
APPID
5
12
100
AcDbSymbolTableRecord
100
AcDbRegAppTableRecord
2
ACAD
70
0
0
ENDTAB
0
TABLE
2
DIMSTYLE
5
A
100
AcDbSymbolTable
70
1
0
ENDTAB
0
TABLE
2
BLOCK_RECORD
5
1
100
AcDbSymbolTable
70
1
0
BLOCK_RECORD
5
1F
100
AcDbSymbolTableRecord
100
AcDbBlockTableRecord
2
*MODEL_SPACE
0
BLOCK_RECORD
5
1B
100
AcDbSymbolTableRecord
100
AcDbBlockTableRecord
2
*PAPER_SPACE
0
ENDTAB
0
ENDSEC
0
SECTION
2
BLOCKS
0
BLOCK
5
20
100
AcDbEntity
100
AcDbBlockBegin
2
*MODEL_SPACE
0
ENDBLK
5
21
100
AcDbEntity
100
AcDbBlockEnd
0
BLOCK
5
1C
100
AcDbEntity
100
AcDbBlockBegin
2
*PAPER_SPACE
0
ENDBLK
5
1D
100
AcDbEntity
100
AcDbBlockEnd
0
ENDSEC
0
SECTION
2
ENTITIES
0
LINE
5
100
100
AcDbEntity
8
0
100
AcDbLine
10
35.965095369210331
20
-49.862797113653997
30
1.7763568394002505e-14
11
38.601310031196689
21
-50.804413706906189
31
1.7763568394002505e-14
0
LWPOLYLINE
5
101
100
AcDbEntity
8
0
100
AcDbPolyline
90
4
70
1
43
0.0
10
92.356436297707489
20
-93.612901060974295
10
99.427504109572709
20
-86.541833249108805
10
98.366843937792908
20
-85.481173077329018
10
91.295776125927688
20
-92.552240889194508
0
LWPOLYLINE
5
102
100
AcDbEntity
8
0
100
AcDbPolyline
90
19
70
1
43
0.0
10
127.56209475158897
20
-4.0000000000000568
10
87.194094751589262
20
-4.0000000000000391
10
83.194094751589276
20
-4.4408920985006262e-14
10
23.194094751589276
20
0
10
14.19409475158929
20
-8.9999999999999947
10
3.1940947515892759
20
-8.9999999999999858
10
-1.8059052484107241
20
-13.999999999999982
10
-1.8059052484107241
20
-73.999999999999474
10
3.1940947515892759
20
-78.999999999999488
10
51.508721848987875
20
-78.999999999999517
10
62.560326690868493
20
-91.027810838369447
10
74.822048082881025
20
-92.066954974557035
10
80.427949702913466
20
-93.888422826049535
10
102.69962615093959
20
-116.16289762857038
10
109.77069394885291
20
-116.16334182753717
10
123.87763406046894
20
-102.05817397854997
10
123.87763406046894
20
-55.199782699999602
10
132.56209475158897
20
-46.515322008879551
10
132.56209475158897
20
-9.0000000000000835
0
LINE
5
103
100
AcDbEntity
8
0
100
AcDbLine
10
31.548793851113963
20
-34.020236456909586
30
1.7763568394002505e-14
11
27.113990475491256
21
-22.467178679007031
31
-8.8817841970012523e-15
0
LINE
5
104
100
AcDbEntity
8
0
100
AcDbLine
10
16.039285007773856
20
-22.065282731174165
30
-8.8817841970012523e-15
11
17.797472806651697
21
-32.036461230422638
31
1.7763568394002505e-14
0
LINE
5
105
100
AcDbEntity
8
0
100
AcDbLine
10
23.11987963743853
20
-40.848884891143193
30
1.7763568394002505e-14
11
23.529115562476335
21
-40.848884891143193
31
1.7763568394002505e-14
0
LWPOLYLINE
5
106
100
AcDbEntity
8
0
100
AcDbPolyline
90
10
70
1
43
0.0
10
89.919999355780504
20
-81.553648988577038
10
88.95802600408453
20
-83.986875701690451
10
88.222399323375825
20
-83.25124902098176
10
87.161739151596024
20
-84.31190919276159
10
87.809920367683702
20
-84.960090408849254
10
85.756773006632997
20
-87.013237769900016
10
86.817433178412827
20
-88.073897941679832
10
90.352967084345408
20
-84.538364035747108
10
92.356436297707234
20
-79.470765437243585
10
92.179659602410567
20
-79.293988741946904
0
LWPOLYLINE
5
107
100
AcDbEntity
8
0
100
AcDbPolyline
90
14
70
1
43
0.0
10
109.91625469717319
20
-97.030583836708857
10
108.85559452539337
20
-95.96992366492907
10
101.78452671352815
20
-103.04099147679457
10
102.84518688530797
20
-104.10165164857435
10
107.73600878851471
20
-101.92140573991573
10
108.08956217910801
20
-102.27495913050905
10
105.90931627044965
20
-107.16578103371592
10
106.96997644222947
20
-108.22644120549568
10
114.0410442540947
20
-101.15537339363023
10
112.98038408231488
20
-100.09471322185044
10
108.87258385975733
20
-104.20251344440813
10
109.87955519427352
20
-101.94363180211489
10
108.06733611690885
20
-100.13141272475032
10
105.80845447461563
20
-101.13838405926657
0
ARC
5
108
100
AcDbEntity
8
0
100
AcDbCircle
10
29.263789842445931
20
-40.643769199940991
30
1.7763568394002505e-14
40
1.1249999999998708
210
0
220
0
230
1
100
AcDbArc
50
251.77392745381582
51
289.20762631645039
0
LINE
5
109
100
AcDbEntity
8
0
100
AcDbLine
10
8.9893249408448028
20
-53.08356333131929
30
1.7763568394002505e-14
11
11.382958728175261
21
-52.098884891143101
31
1.7763568394002505e-14
0
LINE
5
110
100
AcDbEntity
8
0
100
AcDbLine
10
17.797472806651697
20
-32.036461230422638
30
1.7763568394002505e-14
11
15.067040450636284
21
-34.020236456909707
31
1.7763568394002505e-14
0
LWPOLYLINE
5
111
100
AcDbEntity
8
0
100
AcDbPolyline
90
4
70
1
43
0.0
10
100.370313151155
20
-101.6267779144215
10
107.44138096302026
20
-94.555710102556091
10
106.38072079124049
20
-93.495049930776304
10
99.309652979375187
20
-100.56611774264175
0
LWPOLYLINE
5
112
100
AcDbEntity
8
0
100
AcDbPolyline
90
10
70
1
43
0.0
10
86.454632370409456
20
-83.604802411575051
10
87.515292542189243
20
-82.544142239795235
10
86.779665861480538
20
-81.808515559086587
10
89.212892574593866
20
-80.846542207390542
10
91.472552821223985
20
-78.586881960760337
10
91.295776125927375
20
-78.410105265463727
10
86.228177527423924
20
-80.413574478825765
10
82.692643621491356
20
-83.94910838475846
10
83.75330379327113
20
-85.009768556538205
10
85.806451154321834
20
-82.956621195487443
0
ARC
5
113
100
AcDbEntity
8
0
100
AcDbCircle
10
6.9525496858781466
20
-70.589440886630314
30
-8.8817841970012523e-15
40
30.585937500000941
210
2.7723274111124205e-16
220
-1.0191017114286109e-15
230
1
100
AcDbArc
50
70.792373683546003
51
88.465204211937845
0
LWPOLYLINE
5
114
100
AcDbEntity
8
0
100
AcDbPolyline
90
12
70
1
43
0.0
10
99.689252310404854
20
-97.358091286865957
10
100.56242204777897
20
-90.356662779208321
10
100.84171767194584
20
-90.077367155041401
10
103.90584705708763
20
-93.141496540183098
10
104.9665072288674
20
-92.080836368403283
10
100.84171767194582
20
-87.956046811481841
10
99.047904778543042
20
-89.749859704884543
10
98.174735041168958
20
-96.751288212542207
10
97.895439417002095
20
-97.030583836709084
10
94.831310031860326
20
-93.966454451567429
10
93.770649860080525
20
-95.027114623347288
10
97.895439417002137
20
-99.15190418026873
0
LINE
5
115
100
AcDbEntity
8
0
100
AcDbLine
10
35.935223932728988
20
-47.969160111004292
30
1.7763568394002505e-14
11
37.693485825310802
21
-49.569240924194148
31
1.7763568394002505e-14
0
CIRCLE
5
116
100
AcDbEntity
8
0
100
AcDbCircle
10
3.1940947515892759
20
-73.999999999999602
30
0
40
1.5500000000000029
210
0
220
0
230
1
0
LINE
5
117
100
AcDbEntity
8
0
100
AcDbLine
10
10.956416739823567
20
-34.969248717422886
30
1.7763568394002505e-14
11
7.8212745073409451
21
-37.792143462999277
31
1.7763568394002505e-14
0
ARC
5
118
100
AcDbEntity
8
0
100
AcDbCircle
10
39.69644551403622
20
-70.589440886630314
30
-8.8817841970012523e-15
40
30.585937500000817
210
-5.7352909291802226e-16
220
-8.8684309241115293e-16
230
1
100
AcDbArc
50
91.534795788061174
51
109.20762631645373
0
ARC
5
119
100
AcDbEntity
8
0
100
AcDbCircle
10
17.385205357468898
20
-40.643769199940991
30
1.7763568394002505e-14
40
1.1249999999999245
210
0
220
0
230
1
100
AcDbArc
50
250.79237368353503
51
288.22607254618754
0
LINE
5
120
100
AcDbEntity
8
0
100
AcDbLine
10
8.0476851687179263
20
-50.804413706906189
30
1.7763568394002505e-14
11
10.683899830704213
21
-49.86279711365399
31
1.7763568394002505e-14
0
ARC
5
121
100
AcDbEntity
8
0
100
AcDbCircle
10
23.529115562476335
20
-58.059166793608689
30
-8.8817841970012523e-15
40
17.210281902465429
210
4.1256992866893008e-16
220
-1.7658544600523201e-15
230
1
100
AcDbArc
50
71.773927453816498
51
90
0
ARC
5
122
100
AcDbEntity
8
0
100
AcDbCircle
10
10.145880926263011
20
-47.345129163705543
30
1.7763568394002505e-14
40
0.84375000000001021
210
0
220
0
230
1
100
AcDbArc
50
-47.696691727440644
51
14.846425720225565
0
ELLIPSE
5
123
100
AcDbEntity
8
0
100
AcDbEllipse
10
23.311651405786478
20
-49.285244415911407
30
1.7763568394002505e-14
11
-12.656232258118237
21
-0.021191768863512709
31
0.0
40
0.66666666666666696
41
1.1086329755955935
42
1.5706950603483192
0
ARC
5
124
100
AcDbEntity
8
0
100
AcDbCircle
10
7.7672447431834613
20
-40.183165755108348
30
1.7763568394002505e-14
40
0.16875000000008117
210
-0
220
0
230
1
100
AcDbArc
50
88.465204211895028
51
217.02939470580006
0
ARC
5
125
100
AcDbEntity
8
0
100
AcDbCircle
10
8.1044478891357485
20
-50.963330528139117
30
1.7763568394002505e-14
40
0.16875000000003076
210
0
220
0
230
1
100
AcDbArc
50
109.65597048789951
51
253.68359496318041
0
LINE
5
126
100
AcDbEntity
8
0
100
AcDbLine
10
35.659417561926823
20
-34.969248717422886
30
1.7763568394002505e-14
11
31.548793851113963
21
-34.020236456909586
31
1.7763568394002505e-14
0
LINE
5
127
100
AcDbEntity
8
0
100
AcDbLine
10
7.8212745073409451
20
-37.792143462999277
30
1.7763568394002505e-14
11
17.209875804334871
21
-39.516334384813632
31
1.7763568394002505e-14
0
LINE
5
128
100
AcDbEntity
8
0
100
AcDbLine
10
15.067040450636284
20
-34.020236456909707
30
1.7763568394002505e-14
11
10.956416739823567
21
-34.969248717422886
31
1.7763568394002505e-14
0
LINE
5
129
100
AcDbEntity
8
0
100
AcDbLine
10
15.270950748712977
20
-14.677888914853487
30
-8.8817841970012523e-15
11
8.6234984158807038
21
-15.850014114105173
31
-8.8817841970012523e-15
0
ARC
5
130
100
AcDbEntity
8
0
100
AcDbCircle
10
54.808180959402755
20
-52.197407467514083
30
1.7763568394002505e-14
40
19.781016727471673
210
0
220
0
230
1
100
AcDbArc
50
142.97060529422203
51
165.15357427978037
0
ARC
5
131
100
AcDbEntity
8
0
100
AcDbCircle
10
-8.1591857594884232
20
-52.197407467514239
30
1.7763568394002505e-14
40
19.781016727471993
210
0
220
-0
230
1
100
AcDbArc
50
14.846425720220202
51
37.02939470577747
0
ARC
5
132
100
AcDbEntity
8
0
100
AcDbCircle
10
38.544547310778725
20
-50.963330528139117
30
1.7763568394002505e-14
40
0.16875000000001902
210
0
220
0
230
1
100
AcDbArc
50
-73.683594963157262
51
70.344029512055059
0
ARC
5
133
100
AcDbEntity
8
0
100
AcDbCircle
10
37.579907757126207
20
-49.694047113653937
30
1.7763568394002505e-14
40
0.16875000000005969
210
0
220
0
230
1
100
AcDbArc
50
-89.999999999975884
51
47.696691727423101
0
LINE
5
134
100
AcDbEntity
8
0
100
AcDbLine
10
27.113990475491256
20
-22.467178679007031
30
-8.8817841970012523e-15
11
15.270950748712977
21
-14.677888914853487
31
-8.8817841970012523e-15
0
ARC
5
135
100
AcDbEntity
8
0
100
AcDbCircle
10
23.11987963743853
20
-58.059166793608739
30
-8.8817841970012523e-15
40
17.21028190246555
210
-9.4417252973157376e-16
220
-1.5482229019843386e-15
230
1
100
AcDbArc
50
90
51
108.22607254618336
0
SPLINE
5
136
100
AcDbEntity
8
0
100
AcDbSpline
70
0
71
3
72
10
73
6
74
0
42
0.000000001
43
0.0000000001
44
0.0000000001
40
0
40
0
40
0
40
0
40
0.20416614439525341
40
0.20416614439525341
40
0.41195788203771178
40
0.41195788203771178
40
0.41195788203771178
40
0.41195788203771178
10
17.209875804334871
20
-39.516334384813632
30
1.7763568394002505e-14
10
18.183278005806756
20
-39.208790051260955
30
1.7763568394002505e-14
10
19.186696289196234
20
-38.98131567811604
30
1.7763568394002505e-14
10
21.224439269140163
20
-38.675716681658663
30
1.7763568394002505e-14
10
22.268444574920991
20
-38.598884891143264
30
-6.2172489379008766e-14
10
23.307917150875213
20
-38.598884891143314
30
-6.2172489379008766e-14
0
LWPOLYLINE
5
137
100
AcDbEntity
8
0
100
AcDbPolyline
90
13
70
1
43
0.0
10
89.292306912565778
20
-90.54877167583264
10
91.644711054302235
20
-88.19636753409614
10
92.619424781417138
20
-88.219035295191816
10
93.417096469487177
20
-89.016706983261784
10
95.184863422453461
20
-87.248940030295444
10
94.595607771464728
20
-86.659684379306739
42
-0.99999999999999989
10
96.009821333837749
20
-85.245470816933476
10
96.599076984826553
20
-85.834726467922309
10
97.659737156606283
20
-84.774066296142522
10
97.070481505617494
20
-84.184810645153689
42
0.78844256743130048
10
92.925275598590403
20
-86.725742535060533
10
91.037907979978385
20
-86.681850264860259
10
88.231646740785905
20
-89.488111504052824
0
LWPOLYLINE
5
138
100
AcDbEntity
8
0
100
AcDbPolyline
90
4
70
1
43
0.0
10
81.278430059118222
20
-82.534894822385382
10
88.349497870983498
20
-75.463827010519978
10
87.288837699203711
20
-74.403166838740233
10
80.217769887338449
20
-81.474234650605695
0
LWPOLYLINE
5
139
100
AcDbEntity
8
0
100
AcDbPolyline
90
8
70
1
43
0.0
10
86.58173090748042
20
-73.696060047017028
10
86.46387978781938
20
-73.578208927355973
42
0.99999999999999989
10
79.392811975954061
20
-80.64927673922142
10
79.510663095615172
20
-80.767127858882446
10
80.571323267394945
20
-79.706467687102617
10
80.453472147733805
20
-79.588616567441505
42
-0.99999999999999989
10
85.403219616039564
20
-74.638869099135832
10
85.521070735700633
20
-74.756720218796858
0
CIRCLE
5
140
100
AcDbEntity
8
0
100
AcDbCircle
10
106.23538214937997
20
-112.62758582909711
30
0
40
1.5500000000000029
210
0
220
0
230
1
0
LINE
5
141
100
AcDbEntity
8
0
100
AcDbLine
10
8.6234984158807038
20
-15.850014114105173
30
-8.8817841970012523e-15
11
8.519894705057709
21
-17.119701928536976
31
-8.8817841970012523e-15
0
ARC
5
142
100
AcDbEntity
8
0
100
AcDbCircle
10
38.881750456731226
20
-40.183165755108341
30
1.7763568394002505e-14
40
0.16875000000000479
210
-0
220
0
230
1
100
AcDbArc
50
-37.029394705773974
51
91.534795788033662
0
CIRCLE
5
143
100
AcDbEntity
8
0
100
AcDbCircle
10
127.56209475158897
20
-9.0000000000000924
30
0
40
1.5500000000000029
210
0
220
0
230
1
0
SPLINE
5
144
100
AcDbEntity
8
0
100
AcDbSpline
70
0
71
3
72
10
73
6
74
0
42
0.000000001
43
0.0000000001
44
0.0000000001
40
0
40
0
40
0
40
0
40
0.20789451519080696
40
0.20789451519080696
40
0.41216164385048126
40
0.41216164385048126
40
0.41216164385048126
40
0.41216164385048126
10
23.307917150875213
20
-38.598884891143321
30
1.7763568394002505e-14
10
24.347389726829221
20
-38.598884891143321
30
1.7763568394002505e-14
10
25.391395032610085
20
-38.675716681658699
30
1.7763568394002505e-14
10
27.429138012554084
20
-38.981315678116069
30
1.7763568394002505e-14
10
28.432556295943563
20
-39.208790051260955
30
1.7763568394002505e-14
10
29.405958497415376
20
-39.516334384813618
30
1.7763568394002505e-14
0
CIRCLE
5
145
100
AcDbEntity
8
0
100
AcDbCircle
10
3.1940947515892759
20
-14.000000000000083
30
0
40
1.5500000000000029
210
0
220
0
230
1
0
LINE
5
146
100
AcDbEntity
8
0
100
AcDbLine
10
8.519894705057709
20
-17.119701928536976
30
-8.8817841970012523e-15
11
16.039285007773856
21
-22.065282731174165
31
-8.8817841970012523e-15
0
LINE
5
147
100
AcDbEntity
8
0
100
AcDbLine
10
29.405958497415376
20
-39.516334384813618
30
1.7763568394002505e-14
11
38.794559794409587
21
-37.79214346299927
31
1.7763568394002505e-14
0
LINE
5
148
100
AcDbEntity
8
0
100
AcDbLine
10
37.579907757126279
20
-49.862797113653997
30
1.7763568394002505e-14
11
35.965095369210331
21
-49.862797113653997
31
1.7763568394002505e-14
0
ELLIPSE
5
149
100
AcDbEntity
8
0
100
AcDbEllipse
10
23.337343794128032
20
-49.285244415911407
30
1.7763568394002505e-14
11
-12.656232258118226
21
0.021191768863500215
31
0.0
40
0.66666666666666696
41
1.5708975932414961
42
2.0329596779941861
0
LINE
5
150
100
AcDbEntity
8
0
100
AcDbLine
10
11.382958728175261
20
-52.098884891143101
30
1.7763568394002505e-14
11
8.0570390092062283
21
-51.125284103597728
31
1.7763568394002505e-14
0
ARC
5
151
100
AcDbEntity
8
0
100
AcDbCircle
10
42.546888472105984
20
18.449093059958486
30
-8.8817841970012523e-15
40
79.295721560546838
210
-9.7214399189161171e-18
220
3.7543218936524625e-16
230
1
100
AcDbArc
50
244.95775918805623
51
251.72468358981862
0
LINE
5
152
100
AcDbEntity
8
0
100
AcDbLine
10
35.266036471739923
20
-52.098884891143101
30
1.7763568394002505e-14
11
37.659670259069742
21
-53.08356333131929
31
1.7763568394002505e-14
0
ARC
5
153
100
AcDbEntity
8
0
100
AcDbCircle
10
4.1021067278086676
20
18.449093059958486
30
-8.8817841970012523e-15
40
79.295721560537274
210
2.1889947109381376e-16
220
7.2289474840750044e-17
230
1
100
AcDbArc
50
288.27531641018112
51
295.04224081194366
0
LINE
5
154
100
AcDbEntity
8
0
100
AcDbLine
10
38.794559794409587
20
-37.79214346299927
30
1.7763568394002505e-14
11
35.659417561926823
21
-34.969248717422886
31
1.7763568394002505e-14
0
ARC
5
155
100
AcDbEntity
8
0
100
AcDbCircle
10
36.503114273651676
20
-47.345129163705543
30
1.7763568394002505e-14
40
0.84375000000006406
210
0
220
0
230
1
100
AcDbArc
50
165.1535742797839
51
227.69669172742829
0
ARC
5
156
100
AcDbEntity
8
0
100
AcDbCircle
10
37.595470882315709
20
-53.239624224961375
30
1.7763568394002505e-14
40
0.16874999999990289
210
0
220
0
230
1
100
AcDbArc
50
-64.957759188053217
51
67.639013534674945
0
LINE
5
157
100
AcDbEntity
8
0
100
AcDbLine
10
10.683899830704213
20
-49.86279711365399
30
1.7763568394002505e-14
11
9.0690874427882662
21
-49.862797113653883
31
1.7763568394002505e-14
0
ARC
5
158
100
AcDbEntity
8
0
100
AcDbCircle
10
9.0690874427882662
20
-49.69404711365393
30
1.7763568394002505e-14
40
0.16875000000000334
210
0
220
0
230
1
100
AcDbArc
50
132.30330827255906
51
270
0
LINE
5
159
100
AcDbEntity
8
0
100
AcDbLine
10
8.9555093746037429
20
-49.569240924194141
30
1.7763568394002505e-14
11
10.713771267185628
21
-47.969160111004484
31
1.7763568394002505e-14
0
ARC
5
160
100
AcDbEntity
8
0
100
AcDbCircle
10
9.0535243175991198
20
-53.239624224961375
30
1.7763568394002505e-14
40
0.16875000000002624
210
0
220
0
230
1
100
AcDbArc
50
112.3609864654143
51
244.95775918795212
0
LINE
5
161
100
AcDbEntity
8
0
100
AcDbLine
10
38.591956190708316
20
-51.125284103597728
30
1.7763568394002505e-14
11
35.266036471739923
21
-52.098884891143101
31
1.7763568394002505e-14
0
ENDSEC
0
SECTION
2
OBJECTS
0
DICTIONARY
5
C
100
AcDbDictionary
3
ACAD_GROUP
350
D
3
ACAD_MLINESTYLE
350
17
0
DICTIONARY
5
D
100
AcDbDictionary
0
DICTIONARY
5
1A
330
C
100
AcDbDictionary
0
DICTIONARY
5
17
100
AcDbDictionary
0
ENDSEC
0
EOF
